<svg xmlns="http://www.w3.org/2000/svg" xmlns:xlink="http://www.w3.org/1999/xlink" width="450" height="300" viewBox="-0.75 -0.5 1.5 1.0"><style>svg {
  color-scheme: light dark;
}
{
  .canvas g, .title g, .axisbar g, .ticktext g, .tickglyph g, .ticklines g, .legendContent g text {
    fill: rgb(5%, 5%, 5%);
  }
  .ticklines g, .tickglyph g, .legendBorder g {
    stroke: rgb(5%, 5%, 5%);
  }
  .legendBorder g {
    fill: rgb(94%, 94%, 94%);
  }
}
@media (prefers-color-scheme:dark) {
  .canvas g, .title g, .axisbar g, .ticktext g, .tickglyph g, .ticklines g, .legendContent g text {
    fill: rgb(94%, 94%, 94%);
  }
  .ticklines g, .tickglyph g, .legendBorder g {
    stroke: rgb(94%, 94%, 94%);
  }
  .legendBorder g {
    fill: rgb(5%, 5%, 5%);
  }
}
svg { font-family: system-ui,-apple-system,"Segoe UI",Roboto,"Helvetica Neue",Arial,"Noto Sans","Liberation Sans",sans-serif,"Apple Color Emoji","Segoe UI Emoji","Segoe UI Symbol","Noto Color Emoji";
}

ticktext { font-family: SFMono-Regular,Menlo,Monaco,Consolas,"Liberation Mono","Courier New",monospace;
}

</style><g class="chart"><g class="scatterPlot"><g stroke-width="0.0030" stroke="rgb(2%, 29%, 48%)" stroke-opacity="1.0" fill="rgb(2%, 73%, 80%)" fill-opacity="0.2"><rect width="0.0300" height="0.0300" x="0.2146" y="0.1724"/><rect width="0.0300" height="0.0300" x="0.0479" y="0.1058"/><rect width="0.0300" height="0.0300" x="0.0869" y="0.2991"/><rect width="0.0300" height="0.0300" x="-0.2431" y="0.2532"/><rect width="0.0300" height="0.0300" x="0.0434" y="0.0693"/><rect width="0.0300" height="0.0300" x="0.1268" y="0.2279"/><rect width="0.0300" height="0.0300" x="0.1383" y="0.2256"/><rect width="0.0300" height="0.0300" x="0.2474" y="0.2996"/><rect width="0.0300" height="0.0300" x="-0.0506" y="0.0261"/><rect width="0.0300" height="0.0300" x="0.1410" y="0.2763"/><rect width="0.0300" height="0.0300" x="-0.0639" y="0.1819"/><rect width="0.0300" height="0.0300" x="-0.1615" y="-0.0804"/><rect width="0.0300" height="0.0300" x="-0.1907" y="0.1144"/><rect width="0.0300" height="0.0300" x="0.2687" y="0.0926"/><rect width="0.0300" height="0.0300" x="-0.2573" y="-0.0426"/><rect width="0.0300" height="0.0300" x="0.0603" y="0.2513"/><rect width="0.0300" height="0.0300" x="-0.3442" y="-0.0569"/><rect width="0.0300" height="0.0300" x="-0.0000" y="-0.0841"/><rect width="0.0300" height="0.0300" x="0.1561" y="0.0876"/><rect width="0.0300" height="0.0300" x="0.1703" y="0.2250"/><rect width="0.0300" height="0.0300" x="-0.0329" y="0.1868"/><rect width="0.0300" height="0.0300" x="-0.2439" y="0.2230"/><rect width="0.0300" height="0.0300" x="0.0842" y="0.1024"/><rect width="0.0300" height="0.0300" x="0.0257" y="0.1152"/><rect width="0.0300" height="0.0300" x="-0.3060" y="0.2319"/><rect width="0.0300" height="0.0300" x="0.1401" y="0.1620"/><rect width="0.0300" height="0.0300" x="0.0088" y="0.2711"/><rect width="0.0300" height="0.0300" x="-0.0852" y="0.1620"/><rect width="0.0300" height="0.0300" x="0.0221" y="0.1197"/><rect width="0.0300" height="0.0300" x="0.0168" y="0.1303"/><rect width="0.0300" height="0.0300" x="-0.0320" y="0.0456"/><rect width="0.0300" height="0.0300" x="-0.3176" y="0.1768"/><rect width="0.0300" height="0.0300" x="0.1410" y="0.1035"/><rect width="0.0300" height="0.0300" x="0.1259" y="0.0680"/><rect width="0.0300" height="0.0300" x="0.3264" y="0.0254"/><rect width="0.0300" height="0.0300" x="0.0674" y="-0.0263"/><rect width="0.0300" height="0.0300" x="0.0079" y="0.2223"/><rect width="0.0300" height="0.0300" x="-0.3176" y="0.0238"/><rect width="0.0300" height="0.0300" x="-0.3309" y="0.1104"/><rect width="0.0300" height="0.0300" x="-0.1473" y="0.0514"/><rect width="0.0300" height="0.0300" x="0.0221" y="0.1110"/><rect width="0.0300" height="0.0300" x="-0.0107" y="0.1926"/><rect width="0.0300" height="0.0300" x="0.2013" y="0.0621"/><rect width="0.0300" height="0.0300" x="-0.0231" y="-0.0607"/><rect width="0.0300" height="0.0300" x="-0.0098" y="0.1848"/><rect width="0.0300" height="0.0300" x="-0.0949" y="0.0799"/><rect width="0.0300" height="0.0300" x="-0.0763" y="0.0148"/><rect width="0.0300" height="0.0300" x="-0.1056" y="0.1818"/><rect width="0.0300" height="0.0300" x="0.0195" y="0.2920"/><rect width="0.0300" height="0.0300" x="0.0035" y="0.0775"/><rect width="0.0300" height="0.0300" x="0.1312" y="0.1341"/><rect width="0.0300" height="0.0300" x="0.0124" y="0.1451"/><rect width="0.0300" height="0.0300" x="-0.0187" y="0.1919"/><rect width="0.0300" height="0.0300" x="0.4904" y="0.3084"/><rect width="0.0300" height="0.0300" x="-0.0337" y="0.0643"/><rect width="0.0300" height="0.0300" x="-0.0674" y="0.0437"/><rect width="0.0300" height="0.0300" x="0.2811" y="0.1501"/><rect width="0.0300" height="0.0300" x="0.2173" y="0.2256"/><rect width="0.0300" height="0.0300" x="0.0221" y="-0.0886"/><rect width="0.0300" height="0.0300" x="0.0931" y="0.0717"/><rect width="0.0300" height="0.0300" x="-0.1003" y="0.1153"/><rect width="0.0300" height="0.0300" x="0.0026" y="0.2087"/><rect width="0.0300" height="0.0300" x="0.4966" y="0.2445"/><rect width="0.0300" height="0.0300" x="-0.2058" y="0.1365"/><rect width="0.0300" height="0.0300" x="0.1649" y="0.2171"/><rect width="0.0300" height="0.0300" x="-0.2839" y="0.2513"/><rect width="0.0300" height="0.0300" x="0.0887" y="0.2416"/><rect width="0.0300" height="0.0300" x="0.0727" y="-0.0491"/><rect width="0.0300" height="0.0300" x="-0.0320" y="0.0600"/><rect width="0.0300" height="0.0300" x="0.2199" y="0.1627"/><rect width="0.0300" height="0.0300" x="0.0895" y="0.0933"/><rect width="0.0300" height="0.0300" x="0.0505" y="0.1595"/><rect width="0.0300" height="0.0300" x="0.1108" y="0.0325"/><rect width="0.0300" height="0.0300" x="-0.1375" y="0.1488"/><rect width="0.0300" height="0.0300" x="0.2004" y="0.0858"/><rect width="0.0300" height="0.0300" x="0.2306" y="0.1906"/><rect width="0.0300" height="0.0300" x="-0.1357" y="-0.0862"/><rect width="0.0300" height="0.0300" x="0.1569" y="0.0060"/><rect width="0.0300" height="0.0300" x="-0.2998" y="0.1314"/><rect width="0.0300" height="0.0300" x="0.1614" y="0.1984"/><rect width="0.0300" height="0.0300" x="0.0700" y="0.1220"/><rect width="0.0300" height="0.0300" x="-0.3051" y="0.1371"/><rect width="0.0300" height="0.0300" x="0.1170" y="0.1724"/><rect width="0.0300" height="0.0300" x="-0.0000" y="0.1327"/><rect width="0.0300" height="0.0300" x="0.1144" y="0.1690"/><rect width="0.0300" height="0.0300" x="-0.2555" y="0.0563"/><rect width="0.0300" height="0.0300" x="-0.0054" y="0.1689"/><rect width="0.0300" height="0.0300" x="-0.0373" y="0.3270"/><rect width="0.0300" height="0.0300" x="0.4417" y="0.0972"/><rect width="0.0300" height="0.0300" x="-0.3131" y="0.0992"/><rect width="0.0300" height="0.0300" x="0.1516" y="-0.0429"/><rect width="0.0300" height="0.0300" x="0.0399" y="0.0698"/><rect width="0.0300" height="0.0300" x="-0.1668" y="0.2099"/><rect width="0.0300" height="0.0300" x="0.0913" y="0.0152"/><rect width="0.0300" height="0.0300" x="0.2519" y="0.1135"/><rect width="0.0300" height="0.0300" x="0.0709" y="0.3517"/><rect width="0.0300" height="0.0300" x="0.2217" y="0.3192"/><rect width="0.0300" height="0.0300" x="0.2510" y="0.0733"/><rect width="0.0300" height="0.0300" x="0.0957" y="0.1373"/><rect width="0.0300" height="0.0300" x="-0.0506" y="-0.0478"/><rect width="0.0300" height="0.0300" x="0.1224" y="-0.0351"/><rect width="0.0300" height="0.0300" x="0.0452" y="0.0749"/><rect width="0.0300" height="0.0300" x="-0.2227" y="0.1139"/><rect width="0.0300" height="0.0300" x="-0.1668" y="0.1589"/><rect width="0.0300" height="0.0300" x="0.1640" y="-0.0546"/><rect width="0.0300" height="0.0300" x="0.1454" y="0.0925"/><rect width="0.0300" height="0.0300" x="-0.1428" y="0.1560"/><rect width="0.0300" height="0.0300" x="-0.0586" y="0.1510"/><rect width="0.0300" height="0.0300" x="-0.1845" y="0.1352"/><rect width="0.0300" height="0.0300" x="-0.2448" y="-0.0513"/><rect width="0.0300" height="0.0300" x="0.0257" y="-0.1257"/><rect width="0.0300" height="0.0300" x="0.1144" y="0.0686"/><rect width="0.0300" height="0.0300" x="-0.0488" y="0.1327"/><rect width="0.0300" height="0.0300" x="-0.1109" y="0.1009"/><rect width="0.0300" height="0.0300" x="0.1401" y="0.1691"/><rect width="0.0300" height="0.0300" x="-0.1180" y="0.0615"/><rect width="0.0300" height="0.0300" x="-0.0054" y="0.0862"/><rect width="0.0300" height="0.0300" x="0.0966" y="0.1357"/><rect width="0.0300" height="0.0300" x="-0.0133" y="-0.0640"/><rect width="0.0300" height="0.0300" x="-0.0595" y="0.3473"/><rect width="0.0300" height="0.0300" x="-0.0408" y="0.0150"/><rect width="0.0300" height="0.0300" x="-0.0435" y="0.2284"/><rect width="0.0300" height="0.0300" x="-0.0125" y="0.0198"/><rect width="0.0300" height="0.0300" x="0.1303" y="0.2129"/><rect width="0.0300" height="0.0300" x="-0.0240" y="0.1768"/><rect width="0.0300" height="0.0300" x="-0.0000" y="0.1899"/><rect width="0.0300" height="0.0300" x="0.1321" y="0.1690"/><rect width="0.0300" height="0.0300" x="-0.3291" y="0.2891"/><rect width="0.0300" height="0.0300" x="-0.1251" y="0.1022"/><rect width="0.0300" height="0.0300" x="0.0629" y="0.0899"/><rect width="0.0300" height="0.0300" x="0.1836" y="0.3216"/><rect width="0.0300" height="0.0300" x="0.0230" y="-0.0708"/><rect width="0.0300" height="0.0300" x="-0.1260" y="0.1733"/><rect width="0.0300" height="0.0300" x="-0.0142" y="0.0602"/><rect width="0.0300" height="0.0300" x="-0.0710" y="0.1918"/><rect width="0.0300" height="0.0300" x="-0.2457" y="0.1752"/><rect width="0.0300" height="0.0300" x="0.0957" y="0.2694"/><rect width="0.0300" height="0.0300" x="0.0620" y="0.1991"/><rect width="0.0300" height="0.0300" x="0.0408" y="0.0926"/><rect width="0.0300" height="0.0300" x="-0.4400" y="0.0496"/><rect width="0.0300" height="0.0300" x="-0.0559" y="-0.1229"/><rect width="0.0300" height="0.0300" x="-0.1278" y="0.0568"/><rect width="0.0300" height="0.0300" x="-0.2129" y="0.1041"/><rect width="0.0300" height="0.0300" x="0.0035" y="0.0155"/><rect width="0.0300" height="0.0300" x="0.2448" y="0.1427"/><rect width="0.0300" height="0.0300" x="-0.0329" y="0.0883"/><rect width="0.0300" height="0.0300" x="-0.2342" y="0.1098"/><rect width="0.0300" height="0.0300" x="-0.0080" y="0.0634"/><rect width="0.0300" height="0.0300" x="-0.1783" y="0.0824"/><rect width="0.0300" height="0.0300" x="0.1073" y="0.2200"/><rect width="0.0300" height="0.0300" x="0.2527" y="0.1047"/><rect width="0.0300" height="0.0300" x="0.0372" y="0.1873"/><rect width="0.0300" height="0.0300" x="0.3139" y="0.0657"/><rect width="0.0300" height="0.0300" x="-0.1730" y="0.2122"/><rect width="0.0300" height="0.0300" x="0.1525" y="0.0012"/><rect width="0.0300" height="0.0300" x="0.1836" y="0.1230"/><rect width="0.0300" height="0.0300" x="-0.0187" y="-0.0669"/><rect width="0.0300" height="0.0300" x="-0.1331" y="0.1162"/><rect width="0.0300" height="0.0300" x="0.1232" y="0.3009"/><rect width="0.0300" height="0.0300" x="-0.2404" y="0.1023"/><rect width="0.0300" height="0.0300" x="0.0106" y="0.2075"/><rect width="0.0300" height="0.0300" x="-0.1189" y="0.0314"/><rect width="0.0300" height="0.0300" x="-0.1056" y="0.0568"/><rect width="0.0300" height="0.0300" x="0.2066" y="0.1399"/><rect width="0.0300" height="0.0300" x="-0.1286" y="-0.0023"/><rect width="0.0300" height="0.0300" x="-0.3300" y="0.1193"/><rect width="0.0300" height="0.0300" x="-0.0018" y="0.1609"/><rect width="0.0300" height="0.0300" x="-0.1047" y="-0.0113"/><rect width="0.0300" height="0.0300" x="-0.1508" y="0.0841"/><rect width="0.0300" height="0.0300" x="-0.2785" y="0.1190"/><rect width="0.0300" height="0.0300" x="-0.1446" y="0.1471"/><rect width="0.0300" height="0.0300" x="0.1348" y="0.1392"/><rect width="0.0300" height="0.0300" x="-0.2918" y="0.0876"/><rect width="0.0300" height="0.0300" x="-0.3504" y="0.2919"/><rect width="0.0300" height="0.0300" x="0.3272" y="0.1672"/><rect width="0.0300" height="0.0300" x="-0.0745" y="0.2015"/><rect width="0.0300" height="0.0300" x="-0.1136" y="0.2293"/><rect width="0.0300" height="0.0300" x="0.0337" y="0.2050"/><rect width="0.0300" height="0.0300" x="0.1986" y="0.2614"/><rect width="0.0300" height="0.0300" x="-0.0692" y="0.2330"/><rect width="0.0300" height="0.0300" x="-0.1074" y="0.1952"/><rect width="0.0300" height="0.0300" x="-0.0098" y="0.0269"/><rect width="0.0300" height="0.0300" x="-0.0000" y="0.0676"/><rect width="0.0300" height="0.0300" x="0.0816" y="0.2309"/><rect width="0.0300" height="0.0300" x="0.3441" y="0.3011"/><rect width="0.0300" height="0.0300" x="0.1445" y="0.1109"/><rect width="0.0300" height="0.0300" x="-0.0089" y="0.1081"/><rect width="0.0300" height="0.0300" x="-0.2635" y="0.0703"/><rect width="0.0300" height="0.0300" x="-0.2244" y="0.0899"/><rect width="0.0300" height="0.0300" x="0.0443" y="0.2297"/><rect width="0.0300" height="0.0300" x="0.0310" y="0.2353"/><rect width="0.0300" height="0.0300" x="0.0594" y="0.1104"/><rect width="0.0300" height="0.0300" x="-0.1420" y="0.1213"/><rect width="0.0300" height="0.0300" x="0.2989" y="0.0053"/><rect width="0.0300" height="0.0300" x="-0.1828" y="0.2589"/><rect width="0.0300" height="0.0300" x="0.0186" y="-0.1108"/><rect width="0.0300" height="0.0300" x="-0.0745" y="-0.0715"/><rect width="0.0300" height="0.0300" x="-0.1411" y="0.1293"/><rect width="0.0300" height="0.0300" x="0.0789" y="0.1114"/><rect width="0.0300" height="0.0300" x="-0.0169" y="-0.1211"/><rect width="0.0300" height="0.0300" x="0.0443" y="0.1785"/><rect width="0.0300" height="0.0300" x="0.2882" y="0.2276"/><rect width="0.0300" height="0.0300" x="0.0922" y="0.0750"/><rect width="0.0300" height="0.0300" x="0.2155" y="0.0154"/><rect width="0.0300" height="0.0300" x="0.0567" y="0.0936"/><rect width="0.0300" height="0.0300" x="-0.0302" y="-0.0474"/><rect width="0.0300" height="0.0300" x="-0.1331" y="0.1649"/><rect width="0.0300" height="0.0300" x="-0.0275" y="0.0589"/><rect width="0.0300" height="0.0300" x="0.0612" y="0.0764"/><rect width="0.0300" height="0.0300" x="-0.3220" y="-0.1041"/><rect width="0.0300" height="0.0300" x="-0.0683" y="0.3488"/><rect width="0.0300" height="0.0300" x="-0.0435" y="0.0965"/><rect width="0.0300" height="0.0300" x="0.0816" y="0.1258"/><rect width="0.0300" height="0.0300" x="0.4009" y="0.0758"/><rect width="0.0300" height="0.0300" x="-0.1003" y="0.0480"/><rect width="0.0300" height="0.0300" x="0.1791" y="0.1623"/><rect width="0.0300" height="0.0300" x="-0.0630" y="0.2728"/><rect width="0.0300" height="0.0300" x="0.1215" y="0.0310"/><rect width="0.0300" height="0.0300" x="0.1853" y="0.0914"/><rect width="0.0300" height="0.0300" x="0.0842" y="-0.0226"/><rect width="0.0300" height="0.0300" x="-0.0275" y="0.3219"/><rect width="0.0300" height="0.0300" x="0.0895" y="0.3158"/><rect width="0.0300" height="0.0300" x="-0.1810" y="0.1510"/><rect width="0.0300" height="0.0300" x="0.0186" y="0.2564"/><rect width="0.0300" height="0.0300" x="-0.1836" y="-0.0461"/><rect width="0.0300" height="0.0300" x="-0.0479" y="0.1386"/><rect width="0.0300" height="0.0300" x="-0.1792" y="0.1261"/><rect width="0.0300" height="0.0300" x="-0.0000" y="-0.0017"/><rect width="0.0300" height="0.0300" x="0.0860" y="0.1081"/><rect width="0.0300" height="0.0300" x="0.0762" y="0.2975"/><rect width="0.0300" height="0.0300" x="-0.0311" y="0.1571"/><rect width="0.0300" height="0.0300" x="-0.1136" y="0.1587"/><rect width="0.0300" height="0.0300" x="-0.2262" y="0.2344"/><rect width="0.0300" height="0.0300" x="0.0443" y="0.0181"/><rect width="0.0300" height="0.0300" x="-0.0000" y="0.1268"/><rect width="0.0300" height="0.0300" x="-0.2892" y="0.3079"/><rect width="0.0300" height="0.0300" x="0.0913" y="-0.3109"/><rect width="0.0300" height="0.0300" x="0.0603" y="0.1595"/><rect width="0.0300" height="0.0300" x="-0.2147" y="0.1942"/><rect width="0.0300" height="0.0300" x="-0.2599" y="0.1330"/><rect width="0.0300" height="0.0300" x="0.0966" y="0.1157"/><rect width="0.0300" height="0.0300" x="0.3024" y="0.2107"/><rect width="0.0300" height="0.0300" x="0.0656" y="-0.0944"/><rect width="0.0300" height="0.0300" x="0.0443" y="0.1122"/><rect width="0.0300" height="0.0300" x="-0.4089" y="0.0648"/><rect width="0.0300" height="0.0300" x="-0.0790" y="-0.1094"/><rect width="0.0300" height="0.0300" x="-0.2076" y="0.2129"/><rect width="0.0300" height="0.0300" x="0.2714" y="0.2263"/><rect width="0.0300" height="0.0300" x="0.1215" y="0.0699"/><rect width="0.0300" height="0.0300" x="0.0700" y="0.1316"/><rect width="0.0300" height="0.0300" x="0.0079" y="0.1852"/><rect width="0.0300" height="0.0300" x="0.0142" y="-0.0134"/><rect width="0.0300" height="0.0300" x="-0.0337" y="-0.0870"/><rect width="0.0300" height="0.0300" x="-0.1278" y="0.2769"/><rect width="0.0300" height="0.0300" x="0.3618" y="0.1213"/><rect width="0.0300" height="0.0300" x="-0.1216" y="-0.0122"/><rect width="0.0300" height="0.0300" x="0.2687" y="0.0331"/><rect width="0.0300" height="0.0300" x="0.1144" y="-0.0537"/><rect width="0.0300" height="0.0300" x="0.1844" y="-0.0631"/><rect width="0.0300" height="0.0300" x="0.2802" y="0.1868"/><rect width="0.0300" height="0.0300" x="0.0736" y="0.2330"/><rect width="0.0300" height="0.0300" x="-0.1286" y="0.1161"/><rect width="0.0300" height="0.0300" x="-0.1987" y="0.1420"/><rect width="0.0300" height="0.0300" x="-0.1845" y="0.1432"/><rect width="0.0300" height="0.0300" x="-0.0036" y="0.0937"/><rect width="0.0300" height="0.0300" x="0.3272" y="0.1927"/><rect width="0.0300" height="0.0300" x="0.0762" y="0.2277"/><rect width="0.0300" height="0.0300" x="0.0700" y="0.0580"/><rect width="0.0300" height="0.0300" x="0.2235" y="0.1519"/><rect width="0.0300" height="0.0300" x="-0.2271" y="0.1128"/><rect width="0.0300" height="0.0300" x="-0.2608" y="0.2122"/><rect width="0.0300" height="0.0300" x="-0.2005" y="-0.1184"/><rect width="0.0300" height="0.0300" x="-0.0373" y="0.1691"/><rect width="0.0300" height="0.0300" x="-0.0843" y="0.1524"/><rect width="0.0300" height="0.0300" x="0.0922" y="-0.0259"/><rect width="0.0300" height="0.0300" x="-0.1233" y="0.1288"/><rect width="0.0300" height="0.0300" x="0.1605" y="0.3209"/><rect width="0.0300" height="0.0300" x="-0.1721" y="0.2445"/><rect width="0.0300" height="0.0300" x="-0.3069" y="0.2645"/><rect width="0.0300" height="0.0300" x="-0.0080" y="0.3400"/><rect width="0.0300" height="0.0300" x="0.2643" y="-0.0314"/><rect width="0.0300" height="0.0300" x="0.1153" y="0.2154"/><rect width="0.0300" height="0.0300" x="-0.1020" y="0.2149"/><rect width="0.0300" height="0.0300" x="-0.0994" y="0.0213"/><rect width="0.0300" height="0.0300" x="0.0390" y="0.1589"/><rect width="0.0300" height="0.0300" x="0.0612" y="0.0453"/><rect width="0.0300" height="0.0300" x="0.1800" y="0.0965"/><rect width="0.0300" height="0.0300" x="0.0940" y="-0.0119"/><rect width="0.0300" height="0.0300" x="0.0461" y="0.1467"/><rect width="0.0300" height="0.0300" x="0.2075" y="0.0580"/><rect width="0.0300" height="0.0300" x="-0.1561" y="0.1593"/><rect width="0.0300" height="0.0300" x="-0.2138" y="0.1146"/><rect width="0.0300" height="0.0300" x="0.1773" y="0.2837"/><rect width="0.0300" height="0.0300" x="0.0585" y="0.1761"/><rect width="0.0300" height="0.0300" x="-0.0435" y="0.0422"/><rect width="0.0300" height="0.0300" x="-0.0275" y="-0.0409"/><rect width="0.0300" height="0.0300" x="0.0532" y="0.1927"/><rect width="0.0300" height="0.0300" x="0.0328" y="-0.0705"/><rect width="0.0300" height="0.0300" x="-0.2803" y="-0.0612"/><rect width="0.0300" height="0.0300" x="0.3193" y="0.2444"/><rect width="0.0300" height="0.0300" x="0.2013" y="0.1935"/><rect width="0.0300" height="0.0300" x="0.1596" y="0.1513"/><rect width="0.0300" height="0.0300" x="-0.0071" y="0.2387"/><rect width="0.0300" height="0.0300" x="0.0425" y="0.0555"/><rect width="0.0300" height="0.0300" x="0.0638" y="-0.0120"/><rect width="0.0300" height="0.0300" x="0.0993" y="0.2124"/><rect width="0.0300" height="0.0300" x="0.1401" y="-0.0124"/><rect width="0.0300" height="0.0300" x="-0.4293" y="-0.0414"/><rect width="0.0300" height="0.0300" x="-0.0107" y="0.1213"/><rect width="0.0300" height="0.0300" x="-0.2200" y="0.2602"/><rect width="0.0300" height="0.0300" x="-0.2688" y="0.1939"/><rect width="0.0300" height="0.0300" x="-0.2147" y="0.0941"/><rect width="0.0300" height="0.0300" x="-0.0062" y="0.0801"/><rect width="0.0300" height="0.0300" x="-0.0861" y="0.1752"/><rect width="0.0300" height="0.0300" x="-0.4808" y="0.1406"/><rect width="0.0300" height="0.0300" x="0.1011" y="0.0717"/><rect width="0.0300" height="0.0300" x="-0.1224" y="0.1793"/><rect width="0.0300" height="0.0300" x="0.2341" y="0.0150"/><rect width="0.0300" height="0.0300" x="-0.0009" y="0.0181"/><rect width="0.0300" height="0.0300" x="-0.1189" y="0.1180"/><rect width="0.0300" height="0.0300" x="0.2536" y="0.1620"/><rect width="0.0300" height="0.0300" x="-0.1029" y="0.0531"/><rect width="0.0300" height="0.0300" x="-0.0196" y="0.0712"/><rect width="0.0300" height="0.0300" x="-0.1606" y="0.2154"/><rect width="0.0300" height="0.0300" x="0.0159" y="0.1849"/><rect width="0.0300" height="0.0300" x="0.0212" y="0.1852"/><rect width="0.0300" height="0.0300" x="0.1818" y="0.1097"/><rect width="0.0300" height="0.0300" x="0.1357" y="0.1356"/><rect width="0.0300" height="0.0300" x="0.0452" y="0.2428"/><rect width="0.0300" height="0.0300" x="0.0922" y="0.3395"/><rect width="0.0300" height="0.0300" x="-0.2714" y="-0.0308"/><rect width="0.0300" height="0.0300" x="-0.3530" y="0.1010"/><rect width="0.0300" height="0.0300" x="0.0567" y="0.2138"/><rect width="0.0300" height="0.0300" x="0.0479" y="0.2093"/><rect width="0.0300" height="0.0300" x="0.1055" y="-0.0319"/><rect width="0.0300" height="0.0300" x="-0.1969" y="0.1540"/><rect width="0.0300" height="0.0300" x="-0.1278" y="0.1345"/><rect width="0.0300" height="0.0300" x="-0.2626" y="0.0945"/><rect width="0.0300" height="0.0300" x="-0.1082" y="0.1791"/><rect width="0.0300" height="0.0300" x="0.0035" y="0.2767"/><rect width="0.0300" height="0.0300" x="0.1073" y="0.0576"/><rect width="0.0300" height="0.0300" x="-0.1650" y="0.0770"/><rect width="0.0300" height="0.0300" x="0.1241" y="0.1485"/><rect width="0.0300" height="0.0300" x="0.3778" y="0.0924"/><rect width="0.0300" height="0.0300" x="0.2634" y="0.1700"/><rect width="0.0300" height="0.0300" x="-0.0045" y="0.0527"/><rect width="0.0300" height="0.0300" x="0.0372" y="-0.0120"/><rect width="0.0300" height="0.0300" x="0.3264" y="0.2445"/><rect width="0.0300" height="0.0300" x="0.1144" y="-0.0401"/><rect width="0.0300" height="0.0300" x="-0.3876" y="0.0614"/><rect width="0.0300" height="0.0300" x="-0.2156" y="-0.0262"/><rect width="0.0300" height="0.0300" x="0.0266" y="0.0187"/><rect width="0.0300" height="0.0300" x="-0.2883" y="-0.0917"/><rect width="0.0300" height="0.0300" x="-0.1216" y="0.2857"/><rect width="0.0300" height="0.0300" x="-0.4107" y="0.1066"/><rect width="0.0300" height="0.0300" x="-0.1854" y="0.1009"/><rect width="0.0300" height="0.0300" x="-0.2209" y="0.1080"/><rect width="0.0300" height="0.0300" x="0.1144" y="0.1650"/><rect width="0.0300" height="0.0300" x="-0.1624" y="0.1399"/><rect width="0.0300" height="0.0300" x="-0.0027" y="0.2866"/><rect width="0.0300" height="0.0300" x="-0.0985" y="-0.0592"/><rect width="0.0300" height="0.0300" x="0.0727" y="0.0907"/><rect width="0.0300" height="0.0300" x="0.1605" y="0.1273"/><rect width="0.0300" height="0.0300" x="0.3033" y="0.0518"/><rect width="0.0300" height="0.0300" x="0.0594" y="0.2763"/><rect width="0.0300" height="0.0300" x="0.2634" y="0.1858"/><rect width="0.0300" height="0.0300" x="0.0966" y="0.2614"/><rect width="0.0300" height="0.0300" x="-0.1029" y="0.0475"/><rect width="0.0300" height="0.0300" x="0.1312" y="-0.0245"/><rect width="0.0300" height="0.0300" x="-0.0524" y="0.2304"/><rect width="0.0300" height="0.0300" x="-0.1420" y="0.1488"/><rect width="0.0300" height="0.0300" x="-0.0408" y="-0.0684"/><rect width="0.0300" height="0.0300" x="-0.1029" y="0.2422"/><rect width="0.0300" height="0.0300" x="-0.1056" y="0.3199"/><rect width="0.0300" height="0.0300" x="-0.1038" y="0.0905"/><rect width="0.0300" height="0.0300" x="0.0071" y="-0.0516"/><rect width="0.0300" height="0.0300" x="-0.2493" y="-0.0847"/><rect width="0.0300" height="0.0300" x="-0.1065" y="0.1470"/><rect width="0.0300" height="0.0300" x="-0.0364" y="-0.0204"/><rect width="0.0300" height="0.0300" x="0.2900" y="0.1868"/><rect width="0.0300" height="0.0300" x="0.1685" y="-0.2247"/><rect width="0.0300" height="0.0300" x="-0.1553" y="0.1015"/><rect width="0.0300" height="0.0300" x="0.0168" y="-0.1186"/><rect width="0.0300" height="0.0300" x="-0.0071" y="0.0529"/><rect width="0.0300" height="0.0300" x="-0.0337" y="0.0608"/><rect width="0.0300" height="0.0300" x="-0.0071" y="0.0566"/><rect width="0.0300" height="0.0300" x="-0.0009" y="0.1826"/><rect width="0.0300" height="0.0300" x="0.0567" y="-0.0676"/><rect width="0.0300" height="0.0300" x="-0.1109" y="0.1265"/><rect width="0.0300" height="0.0300" x="-0.1198" y="0.1503"/><rect width="0.0300" height="0.0300" x="0.4550" y="-0.0622"/><rect width="0.0300" height="0.0300" x="0.0106" y="0.0941"/><rect width="0.0300" height="0.0300" x="0.0363" y="0.1097"/><rect width="0.0300" height="0.0300" x="-0.1304" y="0.1210"/><rect width="0.0300" height="0.0300" x="-0.3513" y="0.1806"/><rect width="0.0300" height="0.0300" x="0.1827" y="0.1480"/><rect width="0.0300" height="0.0300" x="-0.2945" y="0.1722"/><rect width="0.0300" height="0.0300" x="0.2297" y="-0.0721"/><rect width="0.0300" height="0.0300" x="0.2492" y="-0.0552"/><rect width="0.0300" height="0.0300" x="0.5197" y="0.2134"/><rect width="0.0300" height="0.0300" x="0.1099" y="0.1818"/><rect width="0.0300" height="0.0300" x="0.3201" y="0.2021"/><rect width="0.0300" height="0.0300" x="-0.1402" y="0.2015"/><rect width="0.0300" height="0.0300" x="-0.3309" y="0.2165"/><rect width="0.0300" height="0.0300" x="-0.0000" y="0.2444"/><rect width="0.0300" height="0.0300" x="-0.0000" y="0.1818"/><rect width="0.0300" height="0.0300" x="-0.2351" y="0.0133"/><rect width="0.0300" height="0.0300" x="-0.0861" y="0.2043"/><rect width="0.0300" height="0.0300" x="0.2997" y="0.0461"/><rect width="0.0300" height="0.0300" x="-0.0976" y="0.1041"/><rect width="0.0300" height="0.0300" x="0.1117" y="-0.1252"/><rect width="0.0300" height="0.0300" x="0.2829" y="0.1211"/><rect width="0.0300" height="0.0300" x="-0.2927" y="0.0566"/><rect width="0.0300" height="0.0300" x="0.0443" y="0.0580"/><rect width="0.0300" height="0.0300" x="-0.0630" y="0.2521"/><rect width="0.0300" height="0.0300" x="0.0842" y="0.2663"/><rect width="0.0300" height="0.0300" x="0.1241" y="0.1116"/><rect width="0.0300" height="0.0300" x="0.0993" y="0.3238"/><rect width="0.0300" height="0.0300" x="0.0301" y="0.2940"/><rect width="0.0300" height="0.0300" x="0.0416" y="0.0262"/><rect width="0.0300" height="0.0300" x="-0.0054" y="0.3384"/><rect width="0.0300" height="0.0300" x="-0.0089" y="-0.0028"/><rect width="0.0300" height="0.0300" x="0.0567" y="0.1783"/><rect width="0.0300" height="0.0300" x="0.3388" y="0.0786"/><rect width="0.0300" height="0.0300" x="-0.1721" y="0.1139"/><rect width="0.0300" height="0.0300" x="0.0603" y="0.0599"/><rect width="0.0300" height="0.0300" x="-0.2874" y="0.1633"/><rect width="0.0300" height="0.0300" x="0.1862" y="0.0861"/><rect width="0.0300" height="0.0300" x="-0.0745" y="0.1131"/><rect width="0.0300" height="0.0300" x="-0.1987" y="0.1409"/><rect width="0.0300" height="0.0300" x="0.1428" y="0.0110"/><rect width="0.0300" height="0.0300" x="0.2980" y="0.0845"/><rect width="0.0300" height="0.0300" x="0.0647" y="0.1007"/><rect width="0.0300" height="0.0300" x="-0.0524" y="0.2614"/><rect width="0.0300" height="0.0300" x="-0.1730" y="0.1151"/><rect width="0.0300" height="0.0300" x="-0.0586" y="0.0128"/><rect width="0.0300" height="0.0300" x="0.1765" y="0.0562"/><rect width="0.0300" height="0.0300" x="0.1232" y="0.0810"/><rect width="0.0300" height="0.0300" x="0.1064" y="0.0220"/><rect width="0.0300" height="0.0300" x="0.0514" y="0.2484"/><rect width="0.0300" height="0.0300" x="0.0354" y="0.0927"/><rect width="0.0300" height="0.0300" x="0.1046" y="0.2279"/><rect width="0.0300" height="0.0300" x="0.1676" y="0.0827"/><rect width="0.0300" height="0.0300" x="-0.0506" y="-0.1216"/><rect width="0.0300" height="0.0300" x="-0.3974" y="0.0692"/><rect width="0.0300" height="0.0300" x="-0.3743" y="0.2680"/><rect width="0.0300" height="0.0300" x="-0.1854" y="0.0268"/><rect width="0.0300" height="0.0300" x="0.0168" y="0.1616"/><rect width="0.0300" height="0.0300" x="0.2829" y="-0.0325"/><rect width="0.0300" height="0.0300" x="0.2581" y="0.1081"/><rect width="0.0300" height="0.0300" x="-0.1384" y="0.1567"/><rect width="0.0300" height="0.0300" x="0.2829" y="0.3196"/><rect width="0.0300" height="0.0300" x="0.0230" y="0.1944"/><rect width="0.0300" height="0.0300" x="-0.1490" y="0.2890"/><rect width="0.0300" height="0.0300" x="0.0186" y="0.1093"/><rect width="0.0300" height="0.0300" x="0.0319" y="0.1065"/><rect width="0.0300" height="0.0300" x="0.0550" y="-0.0923"/><rect width="0.0300" height="0.0300" x="-0.0045" y="0.1654"/><rect width="0.0300" height="0.0300" x="0.0567" y="0.3520"/><rect width="0.0300" height="0.0300" x="0.1658" y="0.2892"/><rect width="0.0300" height="0.0300" x="0.0558" y="0.1291"/><rect width="0.0300" height="0.0300" x="-0.0781" y="0.1957"/><rect width="0.0300" height="0.0300" x="-0.1446" y="0.3176"/><rect width="0.0300" height="0.0300" x="0.1348" y="0.0945"/><rect width="0.0300" height="0.0300" x="0.1649" y="0.1248"/><rect width="0.0300" height="0.0300" x="0.1099" y="0.1794"/><rect width="0.0300" height="0.0300" x="0.0221" y="0.1272"/><rect width="0.0300" height="0.0300" x="0.0647" y="0.1936"/><rect width="0.0300" height="0.0300" x="-0.0745" y="0.0967"/><rect width="0.0300" height="0.0300" x="0.0754" y="0.1850"/><rect width="0.0300" height="0.0300" x="-0.0692" y="0.0994"/><rect width="0.0300" height="0.0300" x="-0.0994" y="0.0536"/><rect width="0.0300" height="0.0300" x="-0.2546" y="0.2462"/><rect width="0.0300" height="0.0300" x="0.2013" y="-0.0537"/><rect width="0.0300" height="0.0300" x="-0.0728" y="-0.0623"/><rect width="0.0300" height="0.0300" x="-0.0772" y="0.0187"/><rect width="0.0300" height="0.0300" x="0.0257" y="0.1162"/><rect width="0.0300" height="0.0300" x="-0.2466" y="-0.1107"/><rect width="0.0300" height="0.0300" x="-0.2546" y="0.2405"/><rect width="0.0300" height="0.0300" x="0.1569" y="0.0800"/><rect width="0.0300" height="0.0300" x="-0.0737" y="0.1623"/><rect width="0.0300" height="0.0300" x="0.0603" y="0.3360"/><rect width="0.0300" height="0.0300" x="-0.1437" y="0.1157"/><rect width="0.0300" height="0.0300" x="-0.1127" y="-0.0730"/><rect width="0.0300" height="0.0300" x="0.0168" y="-0.0247"/><rect width="0.0300" height="0.0300" x="-0.1588" y="0.2530"/><rect width="0.0300" height="0.0300" x="0.3414" y="-0.0431"/><rect width="0.0300" height="0.0300" x="0.0310" y="0.0614"/><rect width="0.0300" height="0.0300" x="-0.3309" y="0.0614"/><rect width="0.0300" height="0.0300" x="-0.1375" y="0.0783"/><rect width="0.0300" height="0.0300" x="0.1020" y="0.1274"/><rect width="0.0300" height="0.0300" x="-0.2652" y="0.1623"/><rect width="0.0300" height="0.0300" x="0.1472" y="0.0491"/><rect width="0.0300" height="0.0300" x="0.1303" y="-0.0977"/><rect width="0.0300" height="0.0300" x="0.2394" y="0.2394"/><rect width="0.0300" height="0.0300" x="0.0594" y="0.1327"/><rect width="0.0300" height="0.0300" x="-0.0213" y="0.1161"/><rect width="0.0300" height="0.0300" x="-0.0515" y="0.0196"/><rect width="0.0300" height="0.0300" x="0.1951" y="0.0967"/><rect width="0.0300" height="0.0300" x="0.1135" y="0.0251"/><rect width="0.0300" height="0.0300" x="0.1773" y="0.1942"/><rect width="0.0300" height="0.0300" x="-0.0027" y="0.3169"/><rect width="0.0300" height="0.0300" x="-0.1251" y="0.1803"/><rect width="0.0300" height="0.0300" x="0.2891" y="0.1505"/><rect width="0.0300" height="0.0300" x="0.0487" y="0.2928"/><rect width="0.0300" height="0.0300" x="0.0425" y="0.1630"/><rect width="0.0300" height="0.0300" x="-0.0630" y="0.0717"/><rect width="0.0300" height="0.0300" x="-0.0515" y="-0.0045"/><rect width="0.0300" height="0.0300" x="0.1046" y="0.1818"/><rect width="0.0300" height="0.0300" x="-0.3504" y="-0.0152"/><rect width="0.0300" height="0.0300" x="0.5250" y="0.1047"/><rect width="0.0300" height="0.0300" x="-0.1420" y="0.2921"/><rect width="0.0300" height="0.0300" x="0.0425" y="0.1733"/><rect width="0.0300" height="0.0300" x="-0.1473" y="0.0810"/><rect width="0.0300" height="0.0300" x="-0.1650" y="0.2415"/><rect width="0.0300" height="0.0300" x="0.2980" y="-0.1061"/><rect width="0.0300" height="0.0300" x="0.2714" y="0.1436"/><rect width="0.0300" height="0.0300" x="0.0860" y="0.1243"/><rect width="0.0300" height="0.0300" x="0.0097" y="-0.0417"/><rect width="0.0300" height="0.0300" x="0.0319" y="-0.0038"/><rect width="0.0300" height="0.0300" x="-0.0125" y="-0.0954"/><rect width="0.0300" height="0.0300" x="0.1569" y="0.1355"/><rect width="0.0300" height="0.0300" x="0.1986" y="0.0730"/><rect width="0.0300" height="0.0300" x="0.1960" y="0.0341"/><rect width="0.0300" height="0.0300" x="0.0842" y="-0.0150"/><rect width="0.0300" height="0.0300" x="0.0798" y="-0.0932"/><rect width="0.0300" height="0.0300" x="0.2492" y="-0.1037"/><rect width="0.0300" height="0.0300" x="-0.4329" y="-0.0560"/><rect width="0.0300" height="0.0300" x="-0.0896" y="0.1029"/><rect width="0.0300" height="0.0300" x="-0.1783" y="0.2020"/><rect width="0.0300" height="0.0300" x="0.2244" y="0.1395"/><rect width="0.0300" height="0.0300" x="0.1215" y="0.1471"/><rect width="0.0300" height="0.0300" x="-0.0488" y="0.0505"/><rect width="0.0300" height="0.0300" x="-0.0213" y="0.0695"/><rect width="0.0300" height="0.0300" x="-0.2289" y="0.1476"/><rect width="0.0300" height="0.0300" x="-0.0018" y="0.0828"/><rect width="0.0300" height="0.0300" x="-0.0790" y="0.0975"/><rect width="0.0300" height="0.0300" x="0.3822" y="-0.0198"/><rect width="0.0300" height="0.0300" x="-0.0701" y="0.3153"/><rect width="0.0300" height="0.0300" x="0.1250" y="0.2744"/><rect width="0.0300" height="0.0300" x="-0.1153" y="0.0876"/><rect width="0.0300" height="0.0300" x="0.1791" y="-0.0541"/><rect width="0.0300" height="0.0300" x="0.0913" y="0.1692"/><rect width="0.0300" height="0.0300" x="-0.2839" y="0.0882"/><rect width="0.0300" height="0.0300" x="-0.0639" y="0.1323"/><rect width="0.0300" height="0.0300" x="-0.1615" y="0.1133"/><rect width="0.0300" height="0.0300" x="0.0354" y="0.0964"/><rect width="0.0300" height="0.0300" x="0.0026" y="0.1162"/><rect width="0.0300" height="0.0300" x="-0.0710" y="0.2093"/><rect width="0.0300" height="0.0300" x="0.0310" y="0.1105"/><rect width="0.0300" height="0.0300" x="-0.2085" y="0.1935"/><rect width="0.0300" height="0.0300" x="-0.2989" y="0.0926"/><rect width="0.0300" height="0.0300" x="-0.0701" y="-0.0399"/><rect width="0.0300" height="0.0300" x="0.2687" y="0.2679"/><rect width="0.0300" height="0.0300" x="0.1082" y="-0.0825"/><rect width="0.0300" height="0.0300" x="0.0142" y="0.0742"/><rect width="0.0300" height="0.0300" x="0.3698" y="0.1628"/><rect width="0.0300" height="0.0300" x="0.2864" y="-0.1060"/><rect width="0.0300" height="0.0300" x="-0.0417" y="-0.0262"/><rect width="0.0300" height="0.0300" x="-0.0994" y="0.2615"/><rect width="0.0300" height="0.0300" x="-0.3318" y="-0.0614"/><rect width="0.0300" height="0.0300" x="-0.0071" y="0.0263"/><rect width="0.0300" height="0.0300" x="-0.0772" y="0.0248"/><rect width="0.0300" height="0.0300" x="0.0665" y="-0.0628"/><rect width="0.0300" height="0.0300" x="-0.1012" y="0.2237"/><rect width="0.0300" height="0.0300" x="-0.1118" y="0.0089"/><rect width="0.0300" height="0.0300" x="0.1889" y="-0.0373"/><rect width="0.0300" height="0.0300" x="-0.3504" y="0.0853"/><rect width="0.0300" height="0.0300" x="0.1419" y="0.1950"/><rect width="0.0300" height="0.0300" x="-0.0985" y="0.3201"/><rect width="0.0300" height="0.0300" x="-0.2262" y="-0.0925"/><rect width="0.0300" height="0.0300" x="0.1791" y="-0.0298"/><rect width="0.0300" height="0.0300" x="-0.3513" y="-0.0346"/><rect width="0.0300" height="0.0300" x="-0.1579" y="0.0420"/><rect width="0.0300" height="0.0300" x="-0.2218" y="0.0958"/><rect width="0.0300" height="0.0300" x="0.1561" y="0.0940"/><rect width="0.0300" height="0.0300" x="-0.0062" y="0.1192"/><rect width="0.0300" height="0.0300" x="0.0372" y="0.1476"/><rect width="0.0300" height="0.0300" x="0.2864" y="0.1623"/><rect width="0.0300" height="0.0300" x="0.0239" y="-0.0106"/><rect width="0.0300" height="0.0300" x="0.1268" y="0.1567"/><rect width="0.0300" height="0.0300" x="0.1295" y="0.2149"/><rect width="0.0300" height="0.0300" x="0.1933" y="0.0682"/><rect width="0.0300" height="0.0300" x="0.0133" y="-0.0432"/><rect width="0.0300" height="0.0300" x="0.2474" y="0.3396"/><rect width="0.0300" height="0.0300" x="-0.0169" y="0.0976"/><rect width="0.0300" height="0.0300" x="-0.0169" y="0.0905"/><rect width="0.0300" height="0.0300" x="-0.0098" y="0.1407"/><rect width="0.0300" height="0.0300" x="0.0807" y="-0.0115"/><rect width="0.0300" height="0.0300" x="0.1880" y="-0.1467"/><rect width="0.0300" height="0.0300" x="0.3246" y="-0.0580"/><rect width="0.0300" height="0.0300" x="-0.0719" y="0.1272"/><rect width="0.0300" height="0.0300" x="0.0683" y="0.0512"/><rect width="0.0300" height="0.0300" x="0.2173" y="0.1388"/><rect width="0.0300" height="0.0300" x="-0.1996" y="-0.0108"/><rect width="0.0300" height="0.0300" x="-0.3069" y="0.2079"/><rect width="0.0300" height="0.0300" x="-0.2200" y="0.2597"/><rect width="0.0300" height="0.0300" x="0.1578" y="-0.1502"/><rect width="0.0300" height="0.0300" x="-0.0941" y="0.1999"/><rect width="0.0300" height="0.0300" x="0.3503" y="0.2255"/><rect width="0.0300" height="0.0300" x="0.4186" y="-0.1156"/><rect width="0.0300" height="0.0300" x="0.1428" y="0.2386"/><rect width="0.0300" height="0.0300" x="-0.0870" y="-0.0117"/><rect width="0.0300" height="0.0300" x="0.1853" y="0.0918"/><rect width="0.0300" height="0.0300" x="-0.1482" y="0.0770"/><rect width="0.0300" height="0.0300" x="-0.1251" y="0.0751"/><rect width="0.0300" height="0.0300" x="0.0257" y="0.0660"/><rect width="0.0300" height="0.0300" x="0.0966" y="-0.0385"/><rect width="0.0300" height="0.0300" x="0.1933" y="0.0579"/><rect width="0.0300" height="0.0300" x="-0.0400" y="-0.1301"/><rect width="0.0300" height="0.0300" x="-0.1340" y="0.0580"/><rect width="0.0300" height="0.0300" x="-0.1153" y="0.1592"/><rect width="0.0300" height="0.0300" x="0.0319" y="0.2413"/><rect width="0.0300" height="0.0300" x="-0.2856" y="0.0745"/><rect width="0.0300" height="0.0300" x="0.4088" y="0.2237"/><rect width="0.0300" height="0.0300" x="-0.3122" y="0.0196"/><rect width="0.0300" height="0.0300" x="-0.0151" y="-0.0900"/><rect width="0.0300" height="0.0300" x="0.0807" y="0.3459"/><rect width="0.0300" height="0.0300" x="-0.1437" y="0.1968"/><rect width="0.0300" height="0.0300" x="0.1587" y="0.0738"/><rect width="0.0300" height="0.0300" x="-0.0843" y="0.1146"/><rect width="0.0300" height="0.0300" x="0.2235" y="0.1092"/><rect width="0.0300" height="0.0300" x="0.1827" y="0.1118"/><rect width="0.0300" height="0.0300" x="0.1685" y="-0.0350"/><rect width="0.0300" height="0.0300" x="-0.1686" y="-0.0291"/><rect width="0.0300" height="0.0300" x="0.2474" y="0.0032"/><rect width="0.0300" height="0.0300" x="-0.2067" y="-0.1214"/><rect width="0.0300" height="0.0300" x="0.3361" y="-0.0145"/><rect width="0.0300" height="0.0300" x="0.0177" y="0.1471"/><rect width="0.0300" height="0.0300" x="0.0443" y="0.0596"/><rect width="0.0300" height="0.0300" x="-0.1828" y="-0.0312"/><rect width="0.0300" height="0.0300" x="0.0913" y="0.1274"/><rect width="0.0300" height="0.0300" x="-0.0337" y="0.1122"/><rect width="0.0300" height="0.0300" x="-0.0479" y="-0.0444"/><rect width="0.0300" height="0.0300" x="0.1933" y="0.2082"/><rect width="0.0300" height="0.0300" x="0.2111" y="0.0661"/><rect width="0.0300" height="0.0300" x="-0.0000" y="0.1078"/><rect width="0.0300" height="0.0300" x="0.0878" y="0.0628"/><rect width="0.0300" height="0.0300" x="-0.1109" y="-0.0885"/><rect width="0.0300" height="0.0300" x="0.1286" y="-0.0416"/><rect width="0.0300" height="0.0300" x="-0.3717" y="0.1688"/><rect width="0.0300" height="0.0300" x="-0.1402" y="0.1041"/><rect width="0.0300" height="0.0300" x="0.0026" y="0.3192"/><rect width="0.0300" height="0.0300" x="-0.0089" y="0.0580"/><rect width="0.0300" height="0.0300" x="-0.0745" y="-0.0862"/><rect width="0.0300" height="0.0300" x="-0.1987" y="0.0314"/><rect width="0.0300" height="0.0300" x="-0.3318" y="0.1126"/><rect width="0.0300" height="0.0300" x="0.0505" y="0.2578"/><rect width="0.0300" height="0.0300" x="0.1951" y="0.1005"/><rect width="0.0300" height="0.0300" x="-0.1313" y="-0.0205"/><rect width="0.0300" height="0.0300" x="-0.2626" y="0.1649"/><rect width="0.0300" height="0.0300" x="-0.0408" y="0.3138"/><rect width="0.0300" height="0.0300" x="-0.2076" y="-0.1062"/><rect width="0.0300" height="0.0300" x="0.0922" y="0.1867"/><rect width="0.0300" height="0.0300" x="0.0869" y="0.2545"/><rect width="0.0300" height="0.0300" x="-0.0000" y="0.0932"/><rect width="0.0300" height="0.0300" x="0.2802" y="0.3197"/><rect width="0.0300" height="0.0300" x="-0.0151" y="0.1430"/><rect width="0.0300" height="0.0300" x="-0.0683" y="-0.0537"/><rect width="0.0300" height="0.0300" x="0.1374" y="0.2578"/><rect width="0.0300" height="0.0300" x="0.1986" y="0.1137"/><rect width="0.0300" height="0.0300" x="-0.0266" y="0.2153"/><rect width="0.0300" height="0.0300" x="-0.1402" y="0.0549"/><rect width="0.0300" height="0.0300" x="0.2634" y="0.1176"/><rect width="0.0300" height="0.0300" x="0.2980" y="0.2271"/><rect width="0.0300" height="0.0300" x="-0.2839" y="0.3278"/><rect width="0.0300" height="0.0300" x="-0.1428" y="0.0768"/><rect width="0.0300" height="0.0300" x="0.3689" y="0.0965"/><rect width="0.0300" height="0.0300" x="0.2146" y="0.2366"/><rect width="0.0300" height="0.0300" x="0.1933" y="0.3349"/><rect width="0.0300" height="0.0300" x="-0.2989" y="0.1478"/><rect width="0.0300" height="0.0300" x="-0.0701" y="0.0899"/><rect width="0.0300" height="0.0300" x="-0.0541" y="-0.1046"/><rect width="0.0300" height="0.0300" x="-0.1091" y="0.0801"/><rect width="0.0300" height="0.0300" x="0.0310" y="0.1081"/><rect width="0.0300" height="0.0300" x="-0.0692" y="0.0528"/><rect width="0.0300" height="0.0300" x="-0.0870" y="0.3067"/><rect width="0.0300" height="0.0300" x="0.3414" y="-0.0211"/><rect width="0.0300" height="0.0300" x="-0.0045" y="0.0566"/><rect width="0.0300" height="0.0300" x="0.1977" y="0.1458"/><rect width="0.0300" height="0.0300" x="0.2244" y="0.1345"/><rect width="0.0300" height="0.0300" x="0.2563" y="-0.0147"/><rect width="0.0300" height="0.0300" x="0.0310" y="0.1789"/><rect width="0.0300" height="0.0300" x="0.0079" y="0.0650"/><rect width="0.0300" height="0.0300" x="-0.1579" y="0.3530"/><rect width="0.0300" height="0.0300" x="0.3051" y="0.1340"/><rect width="0.0300" height="0.0300" x="-0.0000" y="0.2134"/><rect width="0.0300" height="0.0300" x="-0.0027" y="0.1848"/><rect width="0.0300" height="0.0300" x="-0.0781" y="0.1109"/><rect width="0.0300" height="0.0300" x="0.0221" y="0.0187"/><rect width="0.0300" height="0.0300" x="-0.1925" y="0.0799"/><rect width="0.0300" height="0.0300" x="0.0044" y="-0.0511"/><rect width="0.0300" height="0.0300" x="0.1410" y="-0.0290"/><rect width="0.0300" height="0.0300" x="0.0922" y="0.1980"/><rect width="0.0300" height="0.0300" x="0.3680" y="0.2434"/><rect width="0.0300" height="0.0300" x="0.2900" y="0.1281"/><rect width="0.0300" height="0.0300" x="-0.2856" y="0.0202"/><rect width="0.0300" height="0.0300" x="-0.0062" y="0.0579"/><rect width="0.0300" height="0.0300" x="0.0496" y="-0.0594"/><rect width="0.0300" height="0.0300" x="-0.0000" y="0.0360"/><rect width="0.0300" height="0.0300" x="0.0762" y="0.1870"/><rect width="0.0300" height="0.0300" x="0.0762" y="0.0433"/><rect width="0.0300" height="0.0300" x="-0.1366" y="-0.0557"/><rect width="0.0300" height="0.0300" x="-0.1286" y="0.0606"/><rect width="0.0300" height="0.0300" x="-0.0852" y="-0.0101"/><rect width="0.0300" height="0.0300" x="-0.1411" y="0.2178"/><rect width="0.0300" height="0.0300" x="0.1587" y="0.1555"/><rect width="0.0300" height="0.0300" x="0.4062" y="0.0800"/><rect width="0.0300" height="0.0300" x="0.2013" y="-0.1204"/><rect width="0.0300" height="0.0300" x="0.2474" y="-0.0726"/><rect width="0.0300" height="0.0300" x="-0.0852" y="0.0566"/><rect width="0.0300" height="0.0300" x="-0.0275" y="-0.0548"/><rect width="0.0300" height="0.0300" x="-0.2626" y="0.0180"/><rect width="0.0300" height="0.0300" x="0.3423" y="-0.0251"/><rect width="0.0300" height="0.0300" x="0.1862" y="0.1818"/><rect width="0.0300" height="0.0300" x="-0.0151" y="-0.0912"/><rect width="0.0300" height="0.0300" x="0.2261" y="0.2293"/><rect width="0.0300" height="0.0300" x="-0.0586" y="0.1081"/><rect width="0.0300" height="0.0300" x="0.0133" y="0.2678"/><rect width="0.0300" height="0.0300" x="-0.0098" y="0.2622"/><rect width="0.0300" height="0.0300" x="0.1419" y="0.2866"/><rect width="0.0300" height="0.0300" x="0.0585" y="-0.0080"/><rect width="0.0300" height="0.0300" x="-0.0701" y="-0.0644"/><rect width="0.0300" height="0.0300" x="-0.2475" y="0.0827"/><rect width="0.0300" height="0.0300" x="0.1569" y="0.1999"/><rect width="0.0300" height="0.0300" x="-0.1686" y="0.2680"/><rect width="0.0300" height="0.0300" x="0.0842" y="-0.0699"/><rect width="0.0300" height="0.0300" x="-0.1615" y="0.1425"/><rect width="0.0300" height="0.0300" x="-0.0169" y="0.0759"/><rect width="0.0300" height="0.0300" x="0.0035" y="0.1882"/><rect width="0.0300" height="0.0300" x="-0.0488" y="0.1375"/><rect width="0.0300" height="0.0300" x="-0.0896" y="-0.1012"/><rect width="0.0300" height="0.0300" x="-0.2448" y="0.1090"/><rect width="0.0300" height="0.0300" x="0.1144" y="-0.0697"/><rect width="0.0300" height="0.0300" x="-0.1446" y="0.0780"/><rect width="0.0300" height="0.0300" x="-0.0453" y="-0.0455"/><rect width="0.0300" height="0.0300" x="0.0035" y="0.1078"/><rect width="0.0300" height="0.0300" x="0.2581" y="0.1047"/><rect width="0.0300" height="0.0300" x="0.0700" y="0.2354"/><rect width="0.0300" height="0.0300" x="-0.0320" y="0.1425"/><rect width="0.0300" height="0.0300" x="0.0727" y="0.2513"/><rect width="0.0300" height="0.0300" x="-0.0018" y="0.0918"/><rect width="0.0300" height="0.0300" x="-0.2768" y="-0.0232"/><rect width="0.0300" height="0.0300" x="-0.4657" y="-0.0161"/><rect width="0.0300" height="0.0300" x="-0.0400" y="0.2314"/><rect width="0.0300" height="0.0300" x="-0.1207" y="0.1671"/><rect width="0.0300" height="0.0300" x="0.1756" y="0.1825"/><rect width="0.0300" height="0.0300" x="-0.2431" y="0.1936"/><rect width="0.0300" height="0.0300" x="0.3627" y="0.1423"/><rect width="0.0300" height="0.0300" x="-0.0657" y="0.0883"/><rect width="0.0300" height="0.0300" x="0.1383" y="0.0215"/><rect width="0.0300" height="0.0300" x="0.3201" y="-0.0720"/><rect width="0.0300" height="0.0300" x="-0.1659" y="0.3231"/><rect width="0.0300" height="0.0300" x="-0.1952" y="0.2314"/><rect width="0.0300" height="0.0300" x="-0.0648" y="0.0937"/><rect width="0.0300" height="0.0300" x="0.1108" y="0.0924"/><rect width="0.0300" height="0.0300" x="0.2980" y="0.2712"/><rect width="0.0300" height="0.0300" x="-0.3557" y="0.3364"/><rect width="0.0300" height="0.0300" x="-0.1890" y="0.1919"/><rect width="0.0300" height="0.0300" x="-0.2555" y="0.1518"/><rect width="0.0300" height="0.0300" x="0.2510" y="0.3105"/><rect width="0.0300" height="0.0300" x="0.1960" y="0.2024"/><rect width="0.0300" height="0.0300" x="0.2439" y="0.2587"/><rect width="0.0300" height="0.0300" x="0.0869" y="0.0754"/><rect width="0.0300" height="0.0300" x="-0.0985" y="0.1301"/><rect width="0.0300" height="0.0300" x="-0.0612" y="0.1580"/><rect width="0.0300" height="0.0300" x="0.1445" y="0.1205"/><rect width="0.0300" height="0.0300" x="-0.1544" y="0.1406"/><rect width="0.0300" height="0.0300" x="0.0346" y="0.1080"/><rect width="0.0300" height="0.0300" x="0.1596" y="-0.1448"/><rect width="0.0300" height="0.0300" x="-0.0541" y="0.1390"/><rect width="0.0300" height="0.0300" x="-0.3743" y="0.2110"/><rect width="0.0300" height="0.0300" x="-0.1473" y="0.2447"/><rect width="0.0300" height="0.0300" x="0.2776" y="-0.0676"/><rect width="0.0300" height="0.0300" x="0.1561" y="0.0563"/><rect width="0.0300" height="0.0300" x="0.3414" y="0.1014"/><rect width="0.0300" height="0.0300" x="0.0629" y="0.0878"/><rect width="0.0300" height="0.0300" x="0.0612" y="0.1620"/><rect width="0.0300" height="0.0300" x="0.1632" y="0.0579"/><rect width="0.0300" height="0.0300" x="-0.0435" y="0.0941"/><rect width="0.0300" height="0.0300" x="0.0709" y="0.1171"/><rect width="0.0300" height="0.0300" x="-0.0657" y="0.0770"/><rect width="0.0300" height="0.0300" x="-0.1828" y="0.3064"/><rect width="0.0300" height="0.0300" x="-0.1464" y="0.0518"/><rect width="0.0300" height="0.0300" x="0.1002" y="0.1119"/><rect width="0.0300" height="0.0300" x="-0.0080" y="0.0199"/><rect width="0.0300" height="0.0300" x="-0.0275" y="0.1302"/><rect width="0.0300" height="0.0300" x="0.0443" y="-0.0279"/><rect width="0.0300" height="0.0300" x="0.0354" y="0.0845"/><rect width="0.0300" height="0.0300" x="-0.1118" y="0.3164"/><rect width="0.0300" height="0.0300" x="0.2873" y="0.0971"/><rect width="0.0300" height="0.0300" x="-0.2333" y="0.0524"/><rect width="0.0300" height="0.0300" x="0.1401" y="0.1504"/><rect width="0.0300" height="0.0300" x="0.2137" y="0.2273"/><rect width="0.0300" height="0.0300" x="-0.1996" y="0.0577"/><rect width="0.0300" height="0.0300" x="0.0709" y="-0.0303"/><rect width="0.0300" height="0.0300" x="0.1383" y="0.1995"/><rect width="0.0300" height="0.0300" x="0.0044" y="0.0074"/><rect width="0.0300" height="0.0300" x="0.0416" y="-0.0088"/><rect width="0.0300" height="0.0300" x="0.1055" y="0.0006"/><rect width="0.0300" height="0.0300" x="0.0204" y="0.0943"/><rect width="0.0300" height="0.0300" x="0.0869" y="0.1621"/><rect width="0.0300" height="0.0300" x="-0.0577" y="0.2297"/><rect width="0.0300" height="0.0300" x="-0.2626" y="-0.0178"/><rect width="0.0300" height="0.0300" x="0.0257" y="0.1543"/><rect width="0.0300" height="0.0300" x="0.0186" y="-0.0865"/><rect width="0.0300" height="0.0300" x="0.0168" y="0.3348"/><rect width="0.0300" height="0.0300" x="0.0745" y="0.1622"/><rect width="0.0300" height="0.0300" x="0.0860" y="0.0987"/><rect width="0.0300" height="0.0300" x="0.0381" y="0.0953"/><rect width="0.0300" height="0.0300" x="-0.2830" y="0.1451"/><rect width="0.0300" height="0.0300" x="-0.2333" y="0.1360"/><rect width="0.0300" height="0.0300" x="0.1853" y="-0.0390"/><rect width="0.0300" height="0.0300" x="0.1977" y="0.1691"/><rect width="0.0300" height="0.0300" x="-0.2652" y="0.0745"/><rect width="0.0300" height="0.0300" x="-0.0169" y="-0.0204"/><rect width="0.0300" height="0.0300" x="0.0168" y="0.2804"/><rect width="0.0300" height="0.0300" x="-0.1686" y="0.0859"/><rect width="0.0300" height="0.0300" x="0.3042" y="0.0768"/><rect width="0.0300" height="0.0300" x="0.1303" y="0.2058"/><rect width="0.0300" height="0.0300" x="-0.0435" y="-0.0311"/><rect width="0.0300" height="0.0300" x="-0.2085" y="0.2087"/><rect width="0.0300" height="0.0300" x="-0.1437" y="0.0580"/><rect width="0.0300" height="0.0300" x="-0.3122" y="0.2936"/><rect width="0.0300" height="0.0300" x="-0.0559" y="0.1901"/><rect width="0.0300" height="0.0300" x="0.1889" y="-0.0606"/><rect width="0.0300" height="0.0300" x="-0.0878" y="0.0226"/><rect width="0.0300" height="0.0300" x="-0.0453" y="0.1190"/><rect width="0.0300" height="0.0300" x="0.0647" y="0.1873"/><rect width="0.0300" height="0.0300" x="0.0736" y="0.0817"/><rect width="0.0300" height="0.0300" x="0.0177" y="0.1213"/><rect width="0.0300" height="0.0300" x="0.1303" y="0.0730"/><rect width="0.0300" height="0.0300" x="0.0319" y="0.1623"/><rect width="0.0300" height="0.0300" x="0.0168" y="0.0172"/><rect width="0.0300" height="0.0300" x="0.1898" y="0.3312"/><rect width="0.0300" height="0.0300" x="-0.1757" y="0.2719"/><rect width="0.0300" height="0.0300" x="0.0212" y="0.1909"/><rect width="0.0300" height="0.0300" x="0.1836" y="0.1719"/><rect width="0.0300" height="0.0300" x="-0.3043" y="0.2909"/><rect width="0.0300" height="0.0300" x="-0.0009" y="0.1813"/><rect width="0.0300" height="0.0300" x="0.1587" y="0.1856"/><rect width="0.0300" height="0.0300" x="-0.1632" y="0.0634"/><rect width="0.0300" height="0.0300" x="-0.0054" y="-0.0718"/><rect width="0.0300" height="0.0300" x="-0.2085" y="0.1431"/><rect width="0.0300" height="0.0300" x="0.0026" y="-0.0314"/><rect width="0.0300" height="0.0300" x="0.0754" y="0.1108"/><rect width="0.0300" height="0.0300" x="-0.1340" y="0.3416"/><rect width="0.0300" height="0.0300" x="0.2997" y="0.1266"/><rect width="0.0300" height="0.0300" x="-0.1526" y="0.1626"/><rect width="0.0300" height="0.0300" x="0.0372" y="0.3040"/><rect width="0.0300" height="0.0300" x="0.0461" y="0.2645"/><rect width="0.0300" height="0.0300" x="0.1853" y="0.0907"/><rect width="0.0300" height="0.0300" x="-0.0639" y="0.1260"/><rect width="0.0300" height="0.0300" x="0.1960" y="0.1039"/><rect width="0.0300" height="0.0300" x="-0.2981" y="0.1508"/><rect width="0.0300" height="0.0300" x="0.0816" y="0.0087"/><rect width="0.0300" height="0.0300" x="-0.1836" y="-0.0697"/><rect width="0.0300" height="0.0300" x="0.0487" y="-0.0029"/><rect width="0.0300" height="0.0300" x="-0.0781" y="0.1968"/><rect width="0.0300" height="0.0300" x="0.0452" y="0.0130"/><rect width="0.0300" height="0.0300" x="0.0514" y="-0.0659"/><rect width="0.0300" height="0.0300" x="0.5383" y="0.1355"/><rect width="0.0300" height="0.0300" x="-0.2102" y="0.0262"/><rect width="0.0300" height="0.0300" x="0.1907" y="0.0625"/><rect width="0.0300" height="0.0300" x="-0.1508" y="0.2104"/><rect width="0.0300" height="0.0300" x="0.1561" y="-0.0049"/><rect width="0.0300" height="0.0300" x="0.0904" y="-0.0353"/><rect width="0.0300" height="0.0300" x="0.0142" y="0.2169"/><rect width="0.0300" height="0.0300" x="0.3015" y="0.1057"/><rect width="0.0300" height="0.0300" x="0.2456" y="-0.0726"/><rect width="0.0300" height="0.0300" x="-0.0018" y="0.1621"/><rect width="0.0300" height="0.0300" x="0.0612" y="-0.1404"/><rect width="0.0300" height="0.0300" x="-0.2377" y="0.1472"/><rect width="0.0300" height="0.0300" x="0.0647" y="0.3531"/><rect width="0.0300" height="0.0300" x="-0.0719" y="0.2594"/><rect width="0.0300" height="0.0300" x="0.0133" y="0.1336"/><rect width="0.0300" height="0.0300" x="0.0452" y="0.2419"/><rect width="0.0300" height="0.0300" x="-0.1969" y="-0.0479"/><rect width="0.0300" height="0.0300" x="0.0594" y="0.3488"/><rect width="0.0300" height="0.0300" x="0.0150" y="0.1931"/><rect width="0.0300" height="0.0300" x="-0.0852" y="0.0457"/><rect width="0.0300" height="0.0300" x="-0.0488" y="0.0446"/><rect width="0.0300" height="0.0300" x="-0.3912" y="0.0094"/><rect width="0.0300" height="0.0300" x="0.0966" y="0.0734"/><rect width="0.0300" height="0.0300" x="-0.0435" y="0.1356"/><rect width="0.0300" height="0.0300" x="-0.1703" y="0.2070"/><rect width="0.0300" height="0.0300" x="-0.0080" y="0.1390"/><rect width="0.0300" height="0.0300" x="0.1179" y="0.1243"/><rect width="0.0300" height="0.0300" x="-0.1153" y="0.1916"/><rect width="0.0300" height="0.0300" x="0.2696" y="0.0907"/><rect width="0.0300" height="0.0300" x="0.0878" y="0.2353"/><rect width="0.0300" height="0.0300" x="-0.0701" y="0.1515"/><rect width="0.0300" height="0.0300" x="0.1649" y="0.0598"/><rect width="0.0300" height="0.0300" x="0.3148" y="0.1166"/><rect width="0.0300" height="0.0300" x="-0.1659" y="0.0272"/><rect width="0.0300" height="0.0300" x="0.1144" y="0.1705"/><rect width="0.0300" height="0.0300" x="0.2519" y="0.1327"/><rect width="0.0300" height="0.0300" x="0.0461" y="0.1635"/><rect width="0.0300" height="0.0300" x="-0.2386" y="0.1813"/><rect width="0.0300" height="0.0300" x="0.0789" y="0.2337"/><rect width="0.0300" height="0.0300" x="-0.0825" y="-0.0064"/><rect width="0.0300" height="0.0300" x="0.2882" y="0.2779"/><rect width="0.0300" height="0.0300" x="-0.1420" y="0.0754"/><rect width="0.0300" height="0.0300" x="-0.2014" y="0.3257"/><rect width="0.0300" height="0.0300" x="0.0940" y="0.2347"/><rect width="0.0300" height="0.0300" x="0.0319" y="0.1890"/><rect width="0.0300" height="0.0300" x="0.1977" y="0.0692"/><rect width="0.0300" height="0.0300" x="0.1401" y="0.2843"/><rect width="0.0300" height="0.0300" x="0.0008" y="-0.0730"/><rect width="0.0300" height="0.0300" x="-0.2227" y="0.2049"/><rect width="0.0300" height="0.0300" x="0.2155" y="0.1507"/><rect width="0.0300" height="0.0300" x="0.0266" y="0.1171"/><rect width="0.0300" height="0.0300" x="0.3840" y="0.3383"/><rect width="0.0300" height="0.0300" x="0.0283" y="0.2511"/><rect width="0.0300" height="0.0300" x="0.2013" y="-0.0415"/><rect width="0.0300" height="0.0300" x="0.0008" y="0.1135"/><rect width="0.0300" height="0.0300" x="0.3051" y="-0.0689"/><rect width="0.0300" height="0.0300" x="-0.1180" y="0.3195"/><rect width="0.0300" height="0.0300" x="-0.2191" y="0.0530"/><rect width="0.0300" height="0.0300" x="-0.3344" y="0.1104"/><rect width="0.0300" height="0.0300" x="-0.1065" y="-0.1194"/><rect width="0.0300" height="0.0300" x="0.0035" y="0.0077"/><rect width="0.0300" height="0.0300" x="0.4718" y="-0.0742"/><rect width="0.0300" height="0.0300" x="0.1383" y="0.1892"/><rect width="0.0300" height="0.0300" x="0.0479" y="-0.0622"/><rect width="0.0300" height="0.0300" x="-0.0000" y="0.1272"/><rect width="0.0300" height="0.0300" x="0.3778" y="0.1205"/><rect width="0.0300" height="0.0300" x="0.3104" y="0.1471"/><rect width="0.0300" height="0.0300" x="-0.3788" y="0.0812"/><rect width="0.0300" height="0.0300" x="0.3166" y="0.1622"/><rect width="0.0300" height="0.0300" x="0.2155" y="0.3513"/><rect width="0.0300" height="0.0300" x="-0.2173" y="0.1520"/><rect width="0.0300" height="0.0300" x="-0.1038" y="-0.1436"/><rect width="0.0300" height="0.0300" x="-0.0169" y="0.1691"/><rect width="0.0300" height="0.0300" x="-0.1641" y="0.1976"/><rect width="0.0300" height="0.0300" x="0.0674" y="0.2716"/><rect width="0.0300" height="0.0300" x="-0.1854" y="0.2414"/><rect width="0.0300" height="0.0300" x="0.3246" y="0.1063"/><rect width="0.0300" height="0.0300" x="-0.2315" y="0.2363"/><rect width="0.0300" height="0.0300" x="0.1179" y="-0.0529"/><rect width="0.0300" height="0.0300" x="-0.0905" y="0.1797"/><rect width="0.0300" height="0.0300" x="0.2847" y="-0.0350"/><rect width="0.0300" height="0.0300" x="0.1436" y="0.1409"/><rect width="0.0300" height="0.0300" x="-0.2945" y="-0.0732"/><rect width="0.0300" height="0.0300" x="-0.1091" y="0.0215"/><rect width="0.0300" height="0.0300" x="0.4257" y="-0.0710"/><rect width="0.0300" height="0.0300" x="-0.0852" y="0.1676"/><rect width="0.0300" height="0.0300" x="-0.0745" y="0.1254"/><rect width="0.0300" height="0.0300" x="0.0372" y="0.3065"/><rect width="0.0300" height="0.0300" x="-0.0941" y="0.0837"/><rect width="0.0300" height="0.0300" x="-0.1145" y="0.0267"/><rect width="0.0300" height="0.0300" x="0.0452" y="0.3046"/><rect width="0.0300" height="0.0300" x="0.2244" y="-0.0834"/><rect width="0.0300" height="0.0300" x="-0.1171" y="0.3473"/><rect width="0.0300" height="0.0300" x="0.1898" y="0.0683"/><rect width="0.0300" height="0.0300" x="0.1720" y="0.0697"/><rect width="0.0300" height="0.0300" x="-0.0745" y="0.2920"/><rect width="0.0300" height="0.0300" x="0.0035" y="0.0433"/><rect width="0.0300" height="0.0300" x="0.2119" y="0.0976"/><rect width="0.0300" height="0.0300" x="-0.1757" y="0.1080"/><rect width="0.0300" height="0.0300" x="-0.0621" y="0.1518"/><rect width="0.0300" height="0.0300" x="0.0443" y="0.2388"/><rect width="0.0300" height="0.0300" x="-0.0763" y="-0.0096"/><rect width="0.0300" height="0.0300" x="0.1960" y="0.0725"/><rect width="0.0300" height="0.0300" x="0.2492" y="0.2679"/><rect width="0.0300" height="0.0300" x="0.1082" y="-0.0408"/><rect width="0.0300" height="0.0300" x="-0.0293" y="-0.0570"/><rect width="0.0300" height="0.0300" x="-0.1003" y="0.2919"/><rect width="0.0300" height="0.0300" x="-0.1455" y="0.1441"/><rect width="0.0300" height="0.0300" x="-0.1304" y="0.1344"/><rect width="0.0300" height="0.0300" x="0.0381" y="-0.0145"/><rect width="0.0300" height="0.0300" x="0.0354" y="0.0465"/><rect width="0.0300" height="0.0300" x="-0.0878" y="0.1938"/><rect width="0.0300" height="0.0300" x="0.0816" y="0.1356"/><rect width="0.0300" height="0.0300" x="0.2687" y="0.1885"/><rect width="0.0300" height="0.0300" x="-0.0852" y="0.1288"/><rect width="0.0300" height="0.0300" x="0.1268" y="0.1815"/><rect width="0.0300" height="0.0300" x="0.0124" y="0.1379"/><rect width="0.0300" height="0.0300" x="-0.2918" y="0.1944"/><rect width="0.0300" height="0.0300" x="0.0550" y="-0.0884"/><rect width="0.0300" height="0.0300" x="0.0647" y="0.0621"/><rect width="0.0300" height="0.0300" x="0.3414" y="0.1255"/><rect width="0.0300" height="0.0300" x="-0.2129" y="0.1239"/><rect width="0.0300" height="0.0300" x="0.0142" y="0.0179"/><rect width="0.0300" height="0.0300" x="0.1153" y="0.0583"/><rect width="0.0300" height="0.0300" x="-0.0080" y="0.0555"/><rect width="0.0300" height="0.0300" x="-0.1233" y="-0.0259"/><rect width="0.0300" height="0.0300" x="0.2660" y="0.1428"/><rect width="0.0300" height="0.0300" x="0.0408" y="0.1109"/><rect width="0.0300" height="0.0300" x="-0.0958" y="0.1409"/><rect width="0.0300" height="0.0300" x="0.0071" y="0.1021"/><rect width="0.0300" height="0.0300" x="0.1401" y="0.0924"/><rect width="0.0300" height="0.0300" x="-0.1038" y="-0.0906"/><rect width="0.0300" height="0.0300" x="0.0957" y="0.2791"/><rect width="0.0300" height="0.0300" x="0.0541" y="0.0627"/><rect width="0.0300" height="0.0300" x="0.1117" y="0.0185"/><rect width="0.0300" height="0.0300" x="0.0416" y="0.2093"/><rect width="0.0300" height="0.0300" x="0.0860" y="0.2330"/><rect width="0.0300" height="0.0300" x="-0.0355" y="0.2677"/><rect width="0.0300" height="0.0300" x="0.3370" y="0.1414"/></g></g><g class="datapadding"></g></g><g class="hud"><g class="frame"><g stroke-width="0" stroke="rgb(0%, 0%, 0%)" stroke-opacity="0" fill="rgb(100%, 100%, 100%)" fill-opacity="0.02"><rect width="1.2417" height="0.8313" x="-0.5447" y="-0.4496"/></g></g><g class="axis"><g class="axisbar"><g stroke-width="0" stroke="rgb(0%, 0%, 0%)" stroke-opacity="0" fill="rgb(5%, 5%, 5%)" fill-opacity="0.4"><rect width="1.2450" height="0.0033" x="-0.5464" y="0.3851"/></g></g><g class="ticks"><g class="ticklines"><g stroke-width="0.0050" stroke="rgb(5%, 5%, 5%)" stroke-opacity="0.05" fill="none"><polyline points="-0.5447,0.3769 -0.5447,-0.4496"/><polyline points="-0.3673,0.3769 -0.3673,-0.4496"/><polyline points="-0.1899,0.3769 -0.1899,-0.4496"/><polyline points="-0.0125,0.3769 -0.0125,-0.4496"/><polyline points="0.1649,0.3769 0.1649,-0.4496"/><polyline points="0.3422,0.3769 0.3422,-0.4496"/><polyline points="0.5196,0.3769 0.5196,-0.4496"/><polyline points="0.6970,0.3769 0.6970,-0.4496"/></g></g><g class="tickglyph"><g stroke-width="0.0033" stroke="rgb(5%, 5%, 5%)" stroke-opacity="0.4" fill="rgb(5%, 5%, 5%)" fill-opacity="0.4"><polyline points="-0.5447,0.4116
-0.5447,0.3868"/><polyline points="-0.3673,0.4116
-0.3673,0.3868"/><polyline points="-0.1899,0.4116
-0.1899,0.3868"/><polyline points="-0.0125,0.4116
-0.0125,0.3868"/><polyline points="0.1649,0.4116
0.1649,0.3868"/><polyline points="0.3422,0.4116
0.3422,0.3868"/><polyline points="0.5196,0.4116
0.5196,0.3868"/><polyline points="0.6970,0.4116
0.6970,0.3868"/></g></g><g class="ticktext"><g stroke-width="0.0" stroke="none" fill="rgb(5%, 5%, 5%)" fill-opacity="1.0" font-size="0.0400" text-anchor="middle"><text x="-0.5447" y="0.4570"> 6</text><text x="-0.3673" y="0.4570"> 8</text><text x="-0.1899" y="0.4570">10</text><text x="-0.0125" y="0.4570">12</text><text x="0.1649" y="0.4570">14</text><text x="0.3422" y="0.4570">16</text><text x="0.5196" y="0.4570">18</text><text x="0.6970" y="0.4570">20</text></g></g></g></g><g class="axis"><g class="axisbar"><g stroke-width="0" stroke="rgb(0%, 0%, 0%)" stroke-opacity="0" fill="rgb(5%, 5%, 5%)" fill-opacity="0.4"><rect width="0.0033" height="0.8298" x="-0.5563" y="-0.4512"/></g></g><g class="ticks"><g class="ticklines"><g stroke-width="0.0050" stroke="rgb(5%, 5%, 5%)" stroke-opacity="0.05" fill="none"><polyline points="-0.5447,0.3769 0.6970,0.3769"/><polyline points="-0.5447,0.2116 0.6970,0.2116"/><polyline points="-0.5447,0.0463 0.6970,0.0463"/><polyline points="-0.5447,-0.1190 0.6970,-0.1190"/><polyline points="-0.5447,-0.2843 0.6970,-0.2843"/><polyline points="-0.5447,-0.4496 0.6970,-0.4496"/></g></g><g class="tickglyph"><g stroke-width="0.0033" stroke="rgb(5%, 5%, 5%)" stroke-opacity="0.4" fill="rgb(5%, 5%, 5%)" fill-opacity="0.4"><polyline points="-0.5795,0.3769
-0.5546,0.3769"/><polyline points="-0.5795,0.2116
-0.5546,0.2116"/><polyline points="-0.5795,0.0463
-0.5546,0.0463"/><polyline points="-0.5795,-0.1190
-0.5546,-0.1190"/><polyline points="-0.5795,-0.2843
-0.5546,-0.2843"/><polyline points="-0.5795,-0.4496
-0.5546,-0.4496"/></g></g><g class="ticktext"><g stroke-width="0.0" stroke="none" fill="rgb(5%, 5%, 5%)" fill-opacity="1.0" font-size="0.0400" text-anchor="end"><text x="-0.5977" y="0.3860">     0</text><text x="-0.5977" y="0.2207">10,000</text><text x="-0.5977" y="0.0554">20,000</text><text x="-0.5977" y="-0.1099">30,000</text><text x="-0.5977" y="-0.2752">40,000</text><text x="-0.5977" y="-0.4405">50,000</text></g></g></g></g><g class="frame"><g stroke-width="0" stroke="rgb(0%, 0%, 0%)" stroke-opacity="0" fill="rgb(0%, 0%, 0%)" fill-opacity="0"><rect width="1.5" height="1.0" x="-0.75" y="-0.5"/></g></g></g></svg>